<?xml version="1.0" encoding="UTF-8"?><svg xmlns="http://www.w3.org/2000/svg" xmlns:xlink="http://www.w3.org/1999/xlink" height="500.0" preserveAspectRatio="xMidYMid meet" version="1.0" viewBox="0.0 0.0 500.0 500.0" width="500.0" zoomAndPan="magnify"><g><g id="change1_1"><path d="M250,0C111.9,0,0,111.9,0,250s111.9,250,250,250s250-111.9,250-250S388.1,0,250,0z M379.5,346.3 c0,8.4-3.6,16.4-9.8,22.1c-6.2,5.7-14.6,8.5-23,7.7c-28.8-2.7-56.7-10.3-82.8-22.7c-25.4-12.1-48.3-28.3-68.3-48.2 c-19.9-19.9-36.2-42.9-48.2-68.3c-12.4-26.1-20.1-53.9-22.7-82.8c-0.1-0.9-0.1-1.8-0.1-2.7c0-7.5,2.8-14.7,7.8-20.3 c5.7-6.2,13.7-9.8,22.1-9.8h40.2c15.3,0,28,11.4,29.7,26.5c1,8.9,2.8,17.7,5.4,26.2c3.3,10.7,0.4,22.2-7.4,30l-16.3,16.3 c17.1,31.2,43.1,57.2,74.3,74.3l16.3-16.3c7.8-7.8,19.3-10.7,30-7.4c8.5,2.6,17.3,4.4,26.2,5.4c15.1,1.7,26.5,14.5,26.5,29.7 V346.3z" fill="#FFF"/></g></g></svg>